# xmcd CD database file
#
# Track frame offsets:
#	150
#	25986
#	54236
#	77931
#	101154
#	118615
#	146461
#	164973
#	177909
#
# Disc length: 2819 seconds
#
# Revision: 2
# Processed by: cddbd v1.4b41PL1 Copyright (c) Steve Scherf et al.
# Submitted via: Feurio! 1.50.2ß - http://www.feurio.com
#
DISCID=7b0b0109
DTITLE=Prince - Lovesexy
DYEAR=1900
DGENRE=
TTITLE0=Lovesexy - Eye No
TTITLE1=Lovesexy - Alphabet St
TTITLE2=Lovesexy - Gran Slam
TTITLE3=Lovesexy - Anna Stesia
TTITLE4=Lovesexy - Dance On
TTITLE5=Lovesexy - Lovesexy
TTITLE6=Lovesexy - When 2 R In Love
TTITLE7=Lovesexy - I Wish U Heaven
TTITLE8=Lovesexy - Positivity
EXTD=
EXTT0=
EXTT1=
EXTT2=
EXTT3=
EXTT4=
EXTT5=
EXTT6=
EXTT7=
EXTT8=
PLAYORDER=
